<svg width="13" height="13" viewBox="0 0 13 13" fill="none" xmlns="http://www.w3.org/2000/svg">
<path d="M8.66631 4.875C8.66631 5.17454 8.42419 5.41667 8.12466 5.41667H7.04137V8.66667C7.04137 8.96621 6.79926 9.20833 6.49973 9.20833C6.2002 9.20833 5.95809 8.96621 5.95809 8.66667V5.41667H4.8748C4.57527 5.41667 4.33315 5.17454 4.33315 4.875C4.33315 4.57546 4.57527 4.33333 4.8748 4.33333H8.12466C8.42419 4.33333 8.66631 4.57546 8.66631 4.875ZM10.8329 9.22783V3.77217C10.0042 3.653 9.34661 2.99542 9.22745 2.16667H3.77201C3.65285 2.99542 2.99529 3.653 2.16658 3.77217V9.22783C2.99529 9.347 3.65285 10.0046 3.77201 10.8333H9.22745C9.34661 10.0046 10.0042 9.347 10.8329 9.22783ZM12.9995 11.1042C12.9995 12.1496 12.1491 13 11.1037 13C10.3492 13 9.69597 12.5564 9.39102 11.9167H3.60843C3.30349 12.5564 2.65026 13 1.89575 13C0.850381 13 0 12.1496 0 11.1042C0 10.3496 0.443607 9.69637 1.08329 9.39142V3.60858C0.443607 3.30363 0 2.65038 0 1.89583C0 0.850417 0.850381 0 1.89575 0C2.65026 0 3.30349 0.443625 3.60843 1.08333H9.39157C9.69651 0.443625 10.3497 0 11.1042 0C12.1496 0 13 0.850417 13 1.89583C13 2.65038 12.5564 3.30363 11.9167 3.60858V9.39196C12.5564 9.69692 13 10.3502 13 11.1047L12.9995 11.1042Z" fill="#343434"/>
</svg>
