<svg width="13" height="15" viewBox="0 0 13 15" fill="none" xmlns="http://www.w3.org/2000/svg">
<path d="M2.16667 4.61538C2.16667 3.39131 2.62321 2.21737 3.43587 1.35181C4.24853 0.486262 5.35073 0 6.5 0C7.64927 0 8.75147 0.486262 9.56413 1.35181C10.3768 2.21737 10.8333 3.39131 10.8333 4.61538V6.85923C10.8333 7.4 10.998 7.92615 11.3028 8.35923L12.7833 10.4615C12.904 10.633 12.9776 10.8368 12.9956 11.0502C13.0137 11.2636 12.9756 11.4782 12.8856 11.6699C12.7957 11.8615 12.6573 12.0227 12.4862 12.1354C12.3151 12.248 12.1179 12.3077 11.9167 12.3077H1.08333C0.882146 12.3077 0.684932 12.248 0.513792 12.1354C0.342651 12.0227 0.204345 11.8615 0.114371 11.6699C0.0243971 11.4782 -0.0136899 11.2636 0.00437792 11.0502C0.0224457 10.8368 0.0959544 10.633 0.216667 10.4615L1.69722 8.35923C2.00194 7.92649 2.16667 7.40016 2.16667 6.85923V4.61538ZM6.5 15C5.95559 14.9999 5.42573 14.8127 4.98919 14.4662C4.55264 14.1198 4.23271 13.6325 4.07694 13.0769H8.92306C8.76729 13.6325 8.44736 14.1198 8.01081 14.4662C7.57427 14.8127 7.04441 14.9999 6.5 15Z" fill="#BFBFBF"/>
</svg>
