<svg width="4" height="21" viewBox="0 0 4 21" fill="none" xmlns="http://www.w3.org/2000/svg">
<path d="M-0.000852185 1.75043C-0.000852227 2.71716 0.78284 3.50085 1.74957 3.50085C2.71631 3.50085 3.5 2.71716 3.5 1.75043C3.5 0.783692 2.71631 -3.42563e-08 1.74957 -7.65136e-08C0.78284 -1.18771e-07 -0.000852142 0.783692 -0.000852185 1.75043Z" fill="#343434"/>
<path d="M-0.000852185 10.5034C-0.000852227 11.4701 0.78284 12.2538 1.74957 12.2538C2.71631 12.2538 3.5 11.4701 3.5 10.5034C3.5 9.53662 2.71631 8.75293 1.74957 8.75293C0.78284 8.75293 -0.000852142 9.53662 -0.000852185 10.5034Z" fill="#343434"/>
<path d="M-0.000852185 19.2494C-0.000852227 20.2162 0.78284 20.9999 1.74957 20.9999C2.71631 20.9999 3.5 20.2162 3.5 19.2494C3.5 18.2827 2.71631 17.499 1.74957 17.499C0.78284 17.499 -0.000852142 18.2827 -0.000852185 19.2494Z" fill="#343434"/>
</svg>
