<svg width="14" height="12" viewBox="0 0 14 12" fill="none" xmlns="http://www.w3.org/2000/svg">
<path d="M2.89474 1H11.1053C11.6078 1 12.0897 1.21071 12.445 1.58579C12.8004 1.96086 13 2.46957 13 3V9C13 9.53043 12.8004 10.0391 12.445 10.4142C12.0897 10.7893 11.6078 11 11.1053 11H2.89474C2.39222 11 1.91029 10.7893 1.55496 10.4142C1.19962 10.0391 1 9.53043 1 9V3C1 2.46957 1.19962 1.96086 1.55496 1.58579C1.91029 1.21071 2.39222 1 2.89474 1ZM2.89474 1.66667C2.57895 1.66667 2.30105 1.78 2.08632 1.98L7 5.33333L11.9137 1.98C11.6989 1.78 11.4211 1.66667 11.1053 1.66667H2.89474ZM7 6.14L1.71368 2.52C1.66316 2.66667 1.63158 2.83333 1.63158 3V9C1.63158 9.35362 1.76466 9.69276 2.00155 9.94281C2.23844 10.1929 2.55973 10.3333 2.89474 10.3333H11.1053C11.4403 10.3333 11.7616 10.1929 11.9985 9.94281C12.2353 9.69276 12.3684 9.35362 12.3684 9V3C12.3684 2.83333 12.3368 2.66667 12.2863 2.52L7 6.14Z" fill="#343434" stroke="#343434" stroke-width="0.5"/>
</svg>
