<svg width="9" height="9" viewBox="0 0 9 9" fill="none" xmlns="http://www.w3.org/2000/svg">
<path fill-rule="evenodd" clip-rule="evenodd" d="M9 4.5C9 6.98528 6.98528 9 4.5 9C2.01472 9 0 6.98528 0 4.5C0 2.01472 2.01472 0 4.5 0C6.98528 0 9 2.01472 9 4.5ZM5.0625 6.75C5.0625 7.06066 4.81066 7.3125 4.5 7.3125C4.18934 7.3125 3.9375 7.06066 3.9375 6.75C3.9375 6.43934 4.18934 6.1875 4.5 6.1875C4.81066 6.1875 5.0625 6.43934 5.0625 6.75ZM4.5 1.6875C4.18934 1.6875 3.9375 1.93934 3.9375 2.25V4.5C3.9375 4.81066 4.18934 5.0625 4.5 5.0625C4.81066 5.0625 5.0625 4.81066 5.0625 4.5V2.25C5.0625 1.93934 4.81066 1.6875 4.5 1.6875Z" fill="#0066FF"/>
</svg>
