<svg width="38" height="38" viewBox="0 0 38 38" fill="none" xmlns="http://www.w3.org/2000/svg">
<circle cx="19" cy="19" r="19" fill="#F2F1F1"/>
<path d="M19.0001 20.9286C20.3891 20.9286 21.5152 19.8413 21.5152 18.5C21.5152 17.1587 20.3891 16.0714 19.0001 16.0714C17.611 16.0714 16.4849 17.1587 16.4849 18.5C16.4849 19.8413 17.611 20.9286 19.0001 20.9286Z" fill="#343434"/>
<path fill-rule="evenodd" clip-rule="evenodd" d="M7 18.5C8.60246 13.5735 13.369 10 19 10C24.631 10 29.3975 13.5735 31 18.5C29.3975 23.4265 24.631 27 19 27C13.369 27 8.60249 23.4265 7 18.5ZM24.0303 18.5C24.0303 21.1825 21.7782 23.3571 19.0001 23.3571C16.2219 23.3571 13.9698 21.1825 13.9698 18.5C13.9698 15.8175 16.2219 13.6429 19.0001 13.6429C21.7782 13.6429 24.0303 15.8175 24.0303 18.5Z" fill="#343434"/>
</svg>
