<svg width="18" height="19" viewBox="0 0 18 19" fill="none" xmlns="http://www.w3.org/2000/svg">
<path d="M8.99408 3.56715e-08C10.2326 -0.000110195 11.4578 0.255254 12.5931 0.750129C13.7285 1.24501 14.7495 1.96875 15.5924 2.87613C16.4354 3.78351 17.0821 4.85502 17.4921 6.02366C17.9022 7.19231 18.0667 8.43298 17.9756 9.66812C17.6219 9.48913 17.2517 9.34475 16.8702 9.237C16.9168 7.65943 16.4887 6.1042 15.6412 4.7728C14.7936 3.44141 13.5658 2.39521 12.1168 1.76974C10.6677 1.14428 9.06427 0.968379 7.5141 1.26483C5.96393 1.56128 4.53851 2.31643 3.42251 3.43243C2.30651 4.54843 1.55137 5.97385 1.25492 7.52402C0.958464 9.07419 1.13436 10.6777 1.75983 12.1267C2.38529 13.5757 3.43149 14.8035 4.76289 15.6511C6.09429 16.4986 7.64952 16.9268 9.22709 16.8801C9.33515 17.2662 9.47923 17.6354 9.65708 17.9866C8.45069 18.0742 7.23902 17.9178 6.09439 17.5268C4.94976 17.1359 3.89562 16.5183 2.99488 15.711C2.09415 14.9037 1.36528 13.9233 0.851779 12.8281C0.338278 11.7329 0.0506672 10.5456 0.00611185 9.33682C-0.0384434 8.12808 0.16097 6.92275 0.592451 5.79277C1.02393 4.66278 1.67864 3.6313 2.51749 2.75989C3.35635 1.88847 4.36216 1.19498 5.47491 0.720805C6.58765 0.246628 7.78452 0.001483 8.99408 3.56715e-08ZM11.8082 6.19102C12.1067 6.19102 12.393 6.30961 12.6041 6.52071C12.8152 6.73181 12.9338 7.01812 12.9338 7.31666C12.9338 7.6152 12.8152 7.90151 12.6041 8.11261C12.393 8.32371 12.1067 8.4423 11.8082 8.4423C11.5096 8.4423 11.2233 8.32371 11.0122 8.11261C10.8011 7.90151 10.6825 7.6152 10.6825 7.31666C10.6825 7.01812 10.8011 6.73181 11.0122 6.52071C11.2233 6.30961 11.5096 6.19102 11.8082 6.19102ZM6.17998 6.19102C6.47852 6.19102 6.76483 6.30961 6.97593 6.52071C7.18703 6.73181 7.30562 7.01812 7.30562 7.31666C7.30562 7.6152 7.18703 7.90151 6.97593 8.11261C6.76483 8.32371 6.47852 8.4423 6.17998 8.4423C5.88144 8.4423 5.59513 8.32371 5.38403 8.11261C5.17293 7.90151 5.05434 7.6152 5.05434 7.31666C5.05434 7.01812 5.17293 6.73181 5.38403 6.52071C5.59513 6.30961 5.88144 6.19102 6.17998 6.19102ZM15.7479 12.9449C15.7479 12.7956 15.6886 12.6524 15.5831 12.5469C15.4775 12.4413 15.3344 12.382 15.1851 12.382C15.0358 12.382 14.8927 12.4413 14.7871 12.5469C14.6816 12.6524 14.6223 12.7956 14.6223 12.9449V14.6333H12.9338C12.7845 14.6333 12.6414 14.6926 12.5358 14.7982C12.4303 14.9037 12.371 15.0469 12.371 15.1961C12.371 15.3454 12.4303 15.4886 12.5358 15.5941C12.6414 15.6997 12.7845 15.759 12.9338 15.759H14.6223V17.4474C14.6223 17.5967 14.6816 17.7398 14.7871 17.8454C14.8927 17.9509 15.0358 18.0102 15.1851 18.0102C15.3344 18.0102 15.4775 17.9509 15.5831 17.8454C15.6886 17.7398 15.7479 17.5967 15.7479 17.4474V15.759H17.4364C17.5856 15.759 17.7288 15.6997 17.8344 15.5941C17.9399 15.4886 17.9992 15.3454 17.9992 15.1961C17.9992 15.0469 17.9399 14.9037 17.8344 14.7982C17.7288 14.6926 17.5856 14.6333 17.4364 14.6333H15.7479V12.9449Z" fill="#0066FF"/>
<path d="M11.9955 12.3818C10.2372 14.1402 7.38629 14.1402 5.62793 12.3818" stroke="#0066FF" stroke-linecap="round" stroke-linejoin="round"/>
</svg>
