<svg width="20" height="20" viewBox="0 0 20 20" fill="none" xmlns="http://www.w3.org/2000/svg">
<path d="M12.221 7.32769C12.402 7.53626 12.7178 7.55863 12.9263 7.37765C13.1349 7.19667 13.1573 6.88088 12.9763 6.67231L12.221 7.32769ZM7.77902 12.6723C7.59804 12.4637 7.28225 12.4414 7.07368 12.6223C6.86511 12.8033 6.84274 13.1191 7.02372 13.3277L7.77902 12.6723ZM10.5 5C10.5 4.72386 10.2761 4.5 10 4.5C9.72386 4.5 9.5 4.72386 9.5 5H10.5ZM9.5 15C9.49999 15.2761 9.72385 15.5 9.99999 15.5C10.2761 15.5 10.5 15.2762 10.5 15L9.5 15ZM18.5 10C18.5 14.6944 14.6944 18.5 10 18.5V19.5C15.2467 19.5 19.5 15.2467 19.5 10H18.5ZM10 18.5C5.30558 18.5 1.5 14.6944 1.5 10H0.5C0.5 15.2467 4.75329 19.5 10 19.5V18.5ZM1.5 10C1.5 5.30558 5.30558 1.5 10 1.5V0.5C4.75329 0.5 0.5 4.75329 0.5 10H1.5ZM10 1.5C14.6944 1.5 18.5 5.30558 18.5 10H19.5C19.5 4.75329 15.2467 0.5 10 0.5V1.5ZM10 9.5C9.25652 9.5 8.60604 9.29819 8.15603 8.99819C7.70253 8.69585 7.5 8.33309 7.5 8H6.5C6.5 8.77148 6.96904 9.40872 7.60133 9.83024C8.23711 10.2541 9.08663 10.5 10 10.5V9.5ZM7.5 8C7.5 7.66691 7.70253 7.30415 8.15603 7.00181C8.60604 6.70181 9.25652 6.5 10 6.5V5.5C9.08663 5.5 8.23711 5.74591 7.60133 6.16976C6.96904 6.59128 6.5 7.22852 6.5 8H7.5ZM10 6.5C11.0071 6.5 11.8215 6.86725 12.221 7.32769L12.9763 6.67231C12.3384 5.93714 11.2137 5.5 10 5.5V6.5ZM10 10.5C10.7435 10.5 11.394 10.7018 11.844 11.0018C12.2975 11.3041 12.5 11.6669 12.5 12H13.5C13.5 11.2285 13.031 10.5913 12.3987 10.1698C11.7629 9.74591 10.9134 9.5 10 9.5V10.5ZM9.5 5V6H10.5V5H9.5ZM9.50002 14L9.5 15L10.5 15L10.5 14L9.50002 14ZM10 13.5C8.99293 13.5 8.17853 13.1327 7.77902 12.6723L7.02372 13.3277C7.66162 14.0629 8.78629 14.5 10 14.5L10 13.5ZM12.5 12C12.5 12.3331 12.2975 12.6959 11.844 12.9982C11.394 13.2982 10.7435 13.5 10 13.5V14.5C10.9134 14.5 11.7629 14.2541 12.3987 13.8302C13.031 13.4087 13.5 12.7715 13.5 12H12.5ZM9.5 6L9.50002 14L10.5 14L10.5 6L9.5 6Z" fill="#BFBFBF"/>
</svg>
