<svg width="112" height="112" viewBox="0 0 112 112" fill="none" xmlns="http://www.w3.org/2000/svg">
<path d="M56 0C41.1528 0.0161105 26.9183 5.94041 16.4198 16.473C5.9212 27.0057 0.0160584 41.2863 0 56.1817C2.8 130.622 109.2 130.59 112 56.1817C111.984 41.2863 106.079 27.0057 95.5802 16.473C85.0817 5.94041 70.8472 0.0161105 56 0ZM25.508 51.1815L27.93 43.6626L21.5553 38.9807C20.9732 38.5527 20.5407 37.9511 20.3196 37.2618C20.0986 36.5725 20.1001 35.8307 20.3242 35.1424C20.5482 34.4541 20.9833 33.8543 21.5672 33.4288C22.1512 33.0032 22.8542 32.7736 23.576 32.7727H31.4207L33.8053 25.3145C34.0342 24.627 34.4728 24.0291 35.059 23.6054C35.6453 23.1818 36.3495 22.9538 37.072 22.9538C37.7945 22.9538 38.4987 23.1818 39.085 23.6054C39.6712 24.0291 40.1098 24.627 40.3387 25.3145L42.7187 32.7727H50.5633C51.2863 32.7722 51.9909 33.0013 52.5762 33.4271C53.1615 33.8529 53.5975 34.4536 53.8218 35.1431C54.046 35.8327 54.0471 36.5757 53.8247 37.2659C53.6024 37.9561 53.1681 38.558 52.584 38.9854L46.2093 43.6672L48.6313 51.1862C48.8532 51.8783 48.8509 52.623 48.6248 53.3136C48.3986 54.0043 47.9603 54.6053 47.3727 55.0306C46.785 55.4559 46.0782 55.6835 45.3536 55.6809C44.629 55.6782 43.9239 55.4455 43.3393 55.0159L37.072 50.3903L30.8 55.0113C30.216 55.4432 29.5095 55.6762 28.784 55.6762C28.0585 55.6762 27.352 55.4432 26.768 55.0113C26.1716 54.5971 25.726 53.9992 25.4986 53.3081C25.2713 52.6171 25.2746 51.8705 25.508 51.1815ZM83.2627 72.7647C80.5207 77.6144 76.5619 81.6601 71.7793 84.5002C66.9968 87.3402 61.557 88.8758 56 88.9544C50.4391 88.8765 44.9952 87.3415 40.208 84.5016C35.4209 81.6617 31.457 77.6157 28.7093 72.7647C28.2132 71.9877 27.9569 71.081 27.9728 70.1584C27.9886 69.2358 28.2759 68.3385 28.7984 67.5792C29.321 66.8199 30.0555 66.2324 30.9098 65.8905C31.7641 65.5486 32.7 65.4676 33.6 65.6577C40.7759 68.37 48.3382 69.9127 56 70.2271C63.6492 69.9087 71.1986 68.3661 78.3627 65.6577C79.2634 65.4653 80.2007 65.5445 81.0566 65.8854C81.9126 66.2263 82.6488 66.8136 83.1727 67.5735C83.6966 68.3333 83.9846 69.2317 84.0007 70.1554C84.0167 71.0792 83.7599 71.987 83.2627 72.7647ZM90.006 38.9854L83.6313 43.6672L86.0533 51.1862C86.2752 51.8783 86.2729 52.623 86.0468 53.3136C85.8206 54.0043 85.3823 54.6053 84.7947 55.0306C84.207 55.4559 83.5002 55.6835 82.7756 55.6809C82.051 55.6782 81.3459 55.4455 80.7613 55.0159L74.494 50.3903L68.222 55.0159C67.638 55.4479 66.9315 55.6809 66.206 55.6809C65.4805 55.6809 64.774 55.4479 64.19 55.0159C63.5897 54.6007 63.1415 53.9996 62.9139 53.3046C62.6864 52.6096 62.692 51.859 62.93 51.1675L65.3567 43.6485L58.9773 38.9667C58.401 38.5368 57.974 37.9361 57.7566 37.2494C57.5392 36.5627 57.5424 35.8249 57.7658 35.1401C57.9891 34.4554 58.4214 33.8584 59.0014 33.4336C59.5814 33.0087 60.2799 32.7775 60.998 32.7727H68.8473L71.232 25.3145C71.4585 24.6247 71.8962 24.0242 72.4827 23.5985C73.0693 23.1728 73.7747 22.9436 74.4987 22.9436C75.2226 22.9436 75.9281 23.1728 76.5146 23.5985C77.1012 24.0242 77.5388 24.6247 77.7653 25.3145L80.1407 32.7727H87.9853C88.7083 32.7722 89.4129 33.0013 89.9982 33.4271C90.5835 33.8529 91.0195 34.4536 91.2438 35.1431C91.468 35.8327 91.4691 36.5757 91.2467 37.2659C91.0244 37.9561 90.5901 38.558 90.006 38.9854Z" fill="#E9E9E9"/>
</svg>
