<svg width="13" height="12" viewBox="0 0 13 12" fill="none" xmlns="http://www.w3.org/2000/svg">
<path d="M6.5 1.081C8.2355 1.081 8.44133 1.087 9.12654 1.116C9.83504 1.146 10.5647 1.295 11.0809 1.7715C11.602 2.2525 11.7585 2.9195 11.791 3.5755C11.8224 4.208 11.8289 4.398 11.8289 6C11.8289 7.602 11.8224 7.792 11.791 8.4245C11.759 9.075 11.5938 9.755 11.0809 10.2285C10.5598 10.7095 9.83775 10.854 9.12654 10.884C8.44133 10.913 8.2355 10.919 6.5 10.919C4.7645 10.919 4.55867 10.913 3.87346 10.884C3.17417 10.8545 2.42775 10.6985 1.91913 10.2285C1.40075 9.75 1.2415 9.0765 1.209 8.4245C1.17758 7.792 1.17108 7.602 1.17108 6C1.17108 4.398 1.17758 4.208 1.209 3.5755C1.24096 2.9275 1.40779 2.2435 1.91913 1.7715C2.43913 1.2915 3.16442 1.146 3.87346 1.116C4.55867 1.087 4.7645 1.081 6.5 1.081ZM6.5 0C4.73471 0 4.51317 0.007 3.81983 0.036C2.81504 0.0785 1.81729 0.3365 1.09092 1.007C0.361833 1.68 0.0850417 2.599 0.039 3.526C0.00758333 4.166 0 4.3705 0 6C0 7.6295 0.00758333 7.834 0.039 8.474C0.0850417 9.4005 0.365625 10.324 1.09092 10.993C1.81946 11.6655 2.81667 11.9215 3.81983 11.964C4.51317 11.993 4.73471 12 6.5 12C8.26529 12 8.48683 11.993 9.18017 11.964C10.1844 11.9215 11.1833 11.663 11.9091 10.993C12.6387 10.3195 12.915 9.401 12.961 8.474C12.9924 7.834 13 7.6295 13 6C13 4.3705 12.9924 4.166 12.961 3.526C12.915 2.5985 12.6349 1.677 11.9091 1.007C11.1816 0.3355 10.1817 0.078 9.18017 0.036C8.48683 0.007 8.26529 0 6.5 0Z" fill="#343434"/>
<path d="M6.49986 2.91992C4.65657 2.91992 3.16211 4.29942 3.16211 6.00092C3.16211 7.70242 4.65657 9.08192 6.49986 9.08192C8.34315 9.08192 9.83761 7.70242 9.83761 6.00092C9.83761 4.29942 8.34315 2.91992 6.49986 2.91992ZM6.49986 8.00092C5.30332 8.00092 4.33319 7.10542 4.33319 6.00092C4.33319 4.89642 5.30332 4.00092 6.49986 4.00092C7.6964 4.00092 8.66653 4.89642 8.66653 6.00092C8.66653 7.10542 7.6964 8.00092 6.49986 8.00092Z" fill="#343434"/>
<path d="M9.96945 3.51715C10.4002 3.51715 10.7495 3.19479 10.7495 2.79715C10.7495 2.3995 10.4002 2.07715 9.96945 2.07715C9.53867 2.07715 9.18945 2.3995 9.18945 2.79715C9.18945 3.19479 9.53867 3.51715 9.96945 3.51715Z" fill="#343434"/>
</svg>
