<svg width="29" height="24" viewBox="0 0 29 24" fill="none" xmlns="http://www.w3.org/2000/svg">
<path d="M10.875 5.997C10.875 5.33733 11.4188 4.7976 12.0833 4.7976C12.7479 4.7976 13.2917 5.33733 13.2917 5.997C13.2917 6.65667 12.7479 7.1964 12.0833 7.1964C11.4188 7.1964 10.875 6.65667 10.875 5.997ZM29 5.3973V13.7931C29 16.7676 26.5592 19.1904 23.5625 19.1904H11.4792C8.4825 19.1904 6.04167 16.7676 6.04167 13.7931V5.3973C6.04167 2.42279 8.4825 0 11.4792 0H23.5625C26.5592 0 29 2.42279 29 5.3973ZM8.31333 16.5757L15.7688 9.17541C16.7596 8.1919 18.3667 8.1919 19.3575 9.17541L20.6142 10.4228C21.1217 10.9145 21.9917 10.9265 22.4871 10.4228L27.7917 5.15742C27.6708 2.95053 25.8221 1.1994 23.5746 1.1994H11.4792C9.14708 1.1994 7.25 3.08246 7.25 5.3973V13.7931C7.25 14.8606 7.64875 15.8321 8.31333 16.5757ZM27.7917 13.7931V6.84858L23.3329 11.2744C22.3783 12.2219 20.6988 12.2219 19.7442 11.2744L18.4875 10.027C17.9679 9.51124 17.1221 9.51124 16.6146 10.027L9.23167 17.3553C9.88417 17.7631 10.6575 18.003 11.4792 18.003H23.5625C25.8946 18.003 27.7917 16.1199 27.7917 13.8051V13.7931ZM20.3121 21.7331C19.5387 22.4048 18.5479 22.7886 17.5208 22.7886H5.4375C3.10542 22.7886 1.20833 20.9055 1.20833 18.5907V10.1949C1.20833 8.69565 2.01792 7.30435 3.32292 6.56072C3.61292 6.3928 3.70958 6.03298 3.54042 5.74513C3.37125 5.45727 3.00875 5.36132 2.71875 5.52924C1.03917 6.48876 0 8.28786 0 10.2069V18.6027C0 21.5772 2.44083 24 5.4375 24H17.5208C18.85 24 20.1187 23.5202 21.1217 22.6567C21.3754 22.4408 21.3996 22.057 21.17 21.8051C20.9404 21.5532 20.5658 21.5292 20.3121 21.7571V21.7331Z" fill="#0066FF"/>
</svg>
