<svg width="11" height="14" viewBox="0 0 11 14" fill="none" xmlns="http://www.w3.org/2000/svg">
<path d="M5.5 14L5.11848 13.6514C4.59251 13.182 0 8.95454 0 5.86223C0 2.62462 2.46244 0 5.5 0C8.53756 0 11 2.62462 11 5.86223C11 8.95457 6.40749 13.1821 5.8837 13.6538L5.5 14ZM5.5 1.26759C3.12038 1.27046 1.19198 3.32586 1.18929 5.86221C1.18929 7.80486 4.01478 10.9082 5.5 12.3286C6.98525 10.9076 9.81071 7.80251 9.81071 5.86221C9.80802 3.32586 7.87965 1.27048 5.5 1.26759Z" fill="#343434"/>
<path d="M5.49983 8.29557C4.31122 8.29557 3.34766 7.2509 3.34766 5.96224C3.34766 4.67358 4.31122 3.62891 5.49983 3.62891C6.68844 3.62891 7.652 4.67358 7.652 5.96224C7.652 7.2509 6.68847 8.29557 5.49983 8.29557ZM5.49983 4.79555C4.90552 4.79555 4.42374 5.31788 4.42374 5.96221C4.42374 6.60654 4.90552 7.12888 5.49983 7.12888C6.09414 7.12888 6.57592 6.60654 6.57592 5.96221C6.57592 5.31788 6.09416 4.79555 5.49983 4.79555Z" fill="#343434"/>
</svg>
