<svg width="5" height="8" viewBox="0 0 5 8" fill="none" xmlns="http://www.w3.org/2000/svg">
<path fill-rule="evenodd" clip-rule="evenodd" d="M0.500001 6.91677C0.500025 7.03213 0.533552 7.14489 0.596345 7.2408C0.659138 7.33671 0.748377 7.41146 0.85278 7.4556C0.957183 7.49974 1.07206 7.5113 1.1829 7.4888C1.29373 7.4663 1.39554 7.41076 1.47546 7.3292L4.33269 4.41243C4.43982 4.30304 4.5 4.15469 4.5 4C4.5 3.84532 4.43982 3.69696 4.33269 3.58757L1.47546 0.670799C1.39554 0.58924 1.29373 0.533701 1.1829 0.511202C1.07206 0.488704 0.957184 0.500256 0.852781 0.544398C0.748378 0.588541 0.659138 0.663292 0.596346 0.759201C0.533553 0.85511 0.500025 0.967871 0.500001 1.08323L0.500001 6.91677Z" fill="#BFBFBF"/>
</svg>
