<svg width="13" height="13" viewBox="0 0 13 13" fill="none" xmlns="http://www.w3.org/2000/svg">
<path d="M6.5 0C7.10035 0 7.67587 0.0767361 8.22656 0.230208C8.77726 0.383681 9.29635 0.600347 9.78385 0.880208C10.2714 1.16007 10.7092 1.49861 11.0974 1.89583C11.4856 2.29306 11.8241 2.73316 12.113 3.21615C12.4019 3.69913 12.6208 4.21597 12.7698 4.76667C12.9187 5.31736 12.9955 5.89514 13 6.5C13 7.10035 12.9233 7.67587 12.7698 8.22656C12.6163 8.77726 12.3997 9.29635 12.1198 9.78385C11.8399 10.2714 11.5014 10.7092 11.1042 11.0974C10.7069 11.4856 10.2668 11.8241 9.78385 12.113C9.30087 12.4019 8.78403 12.6208 8.23333 12.7698C7.68264 12.9187 7.10486 12.9955 6.5 13C5.89965 13 5.32413 12.9233 4.77344 12.7698C4.22274 12.6163 3.70365 12.3997 3.21615 12.1198C2.72865 11.8399 2.2908 11.5014 1.9026 11.1042C1.51441 10.7069 1.17587 10.2668 0.886979 9.78385C0.59809 9.30087 0.379167 8.78403 0.230208 8.23333C0.08125 7.68264 0.00451389 7.10486 0 6.5C0 5.89965 0.0767361 5.32413 0.230208 4.77344C0.383681 4.22274 0.600347 3.70365 0.880208 3.21615C1.16007 2.72865 1.49861 2.2908 1.89583 1.9026C2.29306 1.51441 2.73316 1.17587 3.21615 0.886979C3.69913 0.59809 4.21597 0.379167 4.76667 0.230208C5.31736 0.08125 5.89514 0.00451389 6.5 0ZM6.5 12.1333C7.0191 12.1333 7.51788 12.0656 7.99635 11.9302C8.47483 11.7948 8.9217 11.6052 9.33698 11.3615C9.75226 11.1177 10.1337 10.8243 10.4812 10.4812C10.8288 10.1382 11.1222 9.75903 11.3615 9.34375C11.6007 8.92847 11.7903 8.47934 11.9302 7.99635C12.0701 7.51337 12.1378 7.01458 12.1333 6.5C12.1333 5.9809 12.0656 5.48212 11.9302 5.00365C11.7948 4.52517 11.6052 4.0783 11.3615 3.66302C11.1177 3.24774 10.8243 2.86632 10.4812 2.51875C10.1382 2.17118 9.75903 1.87778 9.34375 1.63854C8.92847 1.39931 8.47934 1.20972 7.99635 1.06979C7.51337 0.929861 7.01458 0.862153 6.5 0.866667C5.9809 0.866667 5.48212 0.934375 5.00365 1.06979C4.52517 1.20521 4.0783 1.39479 3.66302 1.63854C3.24774 1.88229 2.86632 2.17569 2.51875 2.51875C2.17118 2.86181 1.87778 3.24097 1.63854 3.65625C1.39931 4.07153 1.20972 4.52066 1.06979 5.00365C0.929861 5.48663 0.862153 5.98542 0.866667 6.5C0.866667 7.0191 0.934375 7.51788 1.06979 7.99635C1.20521 8.47483 1.39479 8.9217 1.63854 9.33698C1.88229 9.75226 2.17569 10.1337 2.51875 10.4812C2.86181 10.8288 3.24097 11.1222 3.65625 11.3615C4.07153 11.6007 4.52066 11.7903 5.00365 11.9302C5.48663 12.0701 5.98542 12.1378 6.5 12.1333ZM6.93333 6.06667H10.4V6.93333H6.93333V10.4H6.06667V6.93333H2.6V6.06667H6.06667V2.6H6.93333V6.06667Z" fill="black"/>
</svg>
