<svg width="17" height="21" viewBox="0 0 17 21" fill="none" xmlns="http://www.w3.org/2000/svg">
<path d="M14.4927 7.25272V6.06258C14.4927 4.51097 13.8763 3.02291 12.7792 1.92575C11.682 0.828595 10.1939 0.212219 8.64233 0.212219C7.09072 0.212219 5.60266 0.828595 4.5055 1.92575C3.40834 3.02291 2.79197 4.51097 2.79197 6.06258V7.25272C2.0476 7.57758 1.41403 8.11232 0.968742 8.79154C0.523451 9.47076 0.285736 10.265 0.284668 11.0772V16.0918C0.285995 17.1997 0.72669 18.2618 1.51009 19.0452C2.29348 19.8286 3.35561 20.2693 4.4635 20.2706H12.8212C13.9291 20.2693 14.9912 19.8286 15.7746 19.0452C16.558 18.2618 16.9987 17.1997 17 16.0918V11.0772C16.9989 10.265 16.7612 9.47076 16.3159 8.79154C15.8706 8.11232 15.2371 7.57758 14.4927 7.25272ZM4.4635 6.06258C4.4635 4.95429 4.90377 3.89139 5.68745 3.1077C6.47114 2.32402 7.53404 1.88375 8.64233 1.88375C9.75063 1.88375 10.8135 2.32402 11.5972 3.1077C12.3809 3.89139 12.8212 4.95429 12.8212 6.06258V6.89835H4.4635V6.06258ZM15.3285 16.0918C15.3285 16.7568 15.0643 17.3945 14.5941 17.8647C14.1239 18.3349 13.4861 18.5991 12.8212 18.5991H4.4635C3.79852 18.5991 3.16078 18.3349 2.69057 17.8647C2.22036 17.3945 1.9562 16.7568 1.9562 16.0918V11.0772C1.9562 10.4122 2.22036 9.77447 2.69057 9.30426C3.16078 8.83405 3.79852 8.56989 4.4635 8.56989H12.8212C13.4861 8.56989 14.1239 8.83405 14.5941 9.30426C15.0643 9.77447 15.3285 10.4122 15.3285 11.0772V16.0918Z" fill="#AAB4AF"/>
<path d="M8.64241 11.9129C8.42075 11.9129 8.20817 12.001 8.05143 12.1577C7.89469 12.3145 7.80664 12.5271 7.80664 12.7487V14.4202C7.80664 14.6419 7.89469 14.8545 8.05143 15.0112C8.20817 15.168 8.42075 15.256 8.64241 15.256C8.86407 15.256 9.07665 15.168 9.23338 15.0112C9.39012 14.8545 9.47817 14.6419 9.47817 14.4202V12.7487C9.47817 12.5271 9.39012 12.3145 9.23338 12.1577C9.07665 12.001 8.86407 11.9129 8.64241 11.9129Z" fill="#AAB4AF"/>
</svg>
