<svg width="257" height="169" viewBox="0 0 257 169" fill="none" xmlns="http://www.w3.org/2000/svg">
<path d="M251.148 154H23.8523C22.3007 153.998 20.8132 153.382 19.716 152.287C18.6189 151.192 18.0018 149.708 18 148.159V8.27915C18.0013 7.14467 18.4534 6.057 19.2571 5.25479C20.0609 4.45257 21.1507 4.00131 22.2874 4H252.638C253.795 4.00131 254.903 4.46037 255.721 5.27646C256.539 6.09255 256.999 7.19902 257 8.35313V148.159C256.998 149.708 256.381 151.192 255.284 152.287C254.187 153.382 252.699 153.998 251.148 154Z" fill="#F2F2F2"/>
<path d="M243.396 146H32.6038C29.5138 146 27 143.639 27 140.736V18.9041C27 16.7514 28.8628 15 31.1526 15H244.779C247.106 15 249 16.7803 249 18.9684V140.736C249 143.639 246.486 146 243.396 146Z" fill="white"/>
<path d="M257 9H18V5.96982C18.0022 4.38659 18.6219 2.86891 19.723 1.74974C20.8242 0.630571 22.3168 0.00130802 23.8736 0H251.126C252.683 0.00130039 254.176 0.630564 255.277 1.74974C256.378 2.86891 256.998 4.38659 257 5.96982V9Z" fill="#3F3D56"/>
<path d="M28.5 6C29.3284 6 30 5.32843 30 4.5C30 3.67157 29.3284 3 28.5 3C27.6716 3 27 3.67157 27 4.5C27 5.32843 27.6716 6 28.5 6Z" fill="white"/>
<path d="M34.5 6C35.3284 6 36 5.32843 36 4.5C36 3.67157 35.3284 3 34.5 3C33.6716 3 33 3.67157 33 4.5C33 5.32843 33.6716 6 34.5 6Z" fill="white"/>
<path d="M40.5 6C41.3284 6 42 5.32843 42 4.5C42 3.67157 41.3284 3 40.5 3C39.6716 3 39 3.67157 39 4.5C39 5.32843 39.6716 6 40.5 6Z" fill="white"/>
<path d="M197.719 48H97.2811C93.2599 48 90 51.3579 90 55.5V55.5C90 59.6421 93.2599 63 97.2811 63H197.719C201.74 63 205 59.6421 205 55.5C205 51.3579 201.74 48 197.719 48Z" fill="#E6E6E6"/>
<path d="M197.719 72H97.2811C93.2599 72 90 75.3579 90 79.5V79.5C90 83.6421 93.2599 87 97.2811 87H197.719C201.74 87 205 83.6421 205 79.5C205 75.3579 201.74 72 197.719 72Z" fill="#E6E6E6"/>
<path d="M197.719 96H97.2811C93.2599 96 90 99.3579 90 103.5V103.5C90 107.642 93.2599 111 97.2811 111H197.719C201.74 111 205 107.642 205 103.5C205 99.3579 201.74 96 197.719 96Z" fill="#E6E6E6"/>
<path d="M77.5 87C81.6421 87 85 83.6421 85 79.5C85 75.3579 81.6421 72 77.5 72C73.3579 72 70 75.3579 70 79.5C70 83.6421 73.3579 87 77.5 87Z" fill="#E6E6E6"/>
<path d="M79.9144 78.9243L77.8613 76.1944C77.8152 76.1331 77.7594 76.0842 77.6973 76.0507C77.6352 76.0173 77.5682 76 77.5005 76C77.4328 76 77.3657 76.0173 77.3037 76.0507C77.2416 76.0841 77.1857 76.133 77.1396 76.1943L75.0862 78.9243C75.0574 78.9626 75.035 79.0075 75.0202 79.0566C75.0055 79.1056 74.9987 79.1577 75.0002 79.21C75.0018 79.2623 75.0116 79.3137 75.0292 79.3613C75.0468 79.4088 75.0718 79.4516 75.1028 79.4873C75.1338 79.5229 75.1702 79.5506 75.2098 79.5689C75.2495 79.5871 75.2916 79.5955 75.3339 79.5936C75.3762 79.5917 75.4178 79.5795 75.4563 79.5578C75.4947 79.536 75.5294 79.5051 75.5582 79.4668L77.178 77.3125V82.602C77.178 82.7075 77.2119 82.8088 77.2722 82.8834C77.3326 82.9581 77.4145 83 77.4999 83C77.5853 83 77.6672 82.9581 77.7276 82.8834C77.788 82.8088 77.8219 82.7075 77.8219 82.602V77.3109L79.4423 79.4667C79.5005 79.5438 79.5811 79.5891 79.6664 79.5929C79.7516 79.5966 79.8346 79.5583 79.8971 79.4865C79.9596 79.4147 79.9965 79.3152 79.9998 79.2098C80.003 79.1044 79.9723 79.0017 79.9144 78.9243Z" fill="white"/>
<path d="M77.5 111C81.6421 111 85 107.642 85 103.5C85 99.3579 81.6421 96 77.5 96C73.3579 96 70 99.3579 70 103.5C70 107.642 73.3579 111 77.5 111Z" fill="#E6E6E6"/>
<path d="M79.9144 102.924L77.8615 100.194C77.8154 100.133 77.7596 100.084 77.6975 100.051C77.6354 100.017 77.5684 100 77.5007 100C77.433 100 77.366 100.017 77.3039 100.051C77.2418 100.084 77.1859 100.133 77.1398 100.194L75.0866 102.924C75.0577 102.963 75.0352 103.008 75.0204 103.057C75.0056 103.106 74.9987 103.158 75.0002 103.21C75.0017 103.263 75.0115 103.314 75.0291 103.362C75.0468 103.409 75.0718 103.452 75.1028 103.488C75.1338 103.523 75.1702 103.551 75.2099 103.569C75.2497 103.588 75.2919 103.596 75.3342 103.594C75.3765 103.592 75.4181 103.58 75.4566 103.558C75.4951 103.536 75.5298 103.505 75.5585 103.467L77.1782 101.312V106.602C77.1782 106.708 77.2121 106.809 77.2725 106.883C77.3328 106.958 77.4147 107 77.5001 107C77.5855 107 77.6674 106.958 77.7278 106.883C77.7881 106.809 77.8221 106.708 77.8221 106.602V101.311L79.4423 103.467C79.5006 103.544 79.5811 103.589 79.6664 103.593C79.7517 103.597 79.8346 103.558 79.8971 103.487C79.9596 103.415 79.9965 103.315 79.9998 103.21C80.003 103.104 79.9723 103.002 79.9144 102.924Z" fill="white"/>
<path d="M77.5 63C81.6421 63 85 59.6421 85 55.5C85 51.3579 81.6421 48 77.5 48C73.3579 48 70 51.3579 70 55.5C70 59.6421 73.3579 63 77.5 63Z" fill="#0066FF"/>
<path d="M79.9144 54.9243L77.8615 52.1944C77.8154 52.1331 77.7596 52.0842 77.6975 52.0507C77.6354 52.0173 77.5684 52 77.5007 52C77.433 52 77.366 52.0173 77.3039 52.0507C77.2418 52.0841 77.1859 52.133 77.1398 52.1943L75.0866 54.9243C75.0577 54.9626 75.0352 55.0075 75.0204 55.0566C75.0056 55.1057 74.9987 55.1578 75.0002 55.2102C75.0017 55.2625 75.0115 55.314 75.0291 55.3616C75.0468 55.4093 75.0718 55.4521 75.1028 55.4878C75.1338 55.5235 75.1702 55.5512 75.2099 55.5695C75.2497 55.5877 75.2919 55.5961 75.3342 55.5941C75.3765 55.5922 75.4181 55.5799 75.4566 55.5581C75.4951 55.5362 75.5298 55.5052 75.5585 55.4668L77.1782 53.3125V58.602C77.1782 58.7075 77.2121 58.8088 77.2725 58.8834C77.3328 58.9581 77.4147 59 77.5001 59C77.5855 59 77.6674 58.9581 77.7278 58.8834C77.7881 58.8088 77.8221 58.7075 77.8221 58.602V53.3109L79.4423 55.4667C79.5006 55.5438 79.5811 55.5891 79.6664 55.5929C79.7517 55.5966 79.8346 55.5583 79.8971 55.4865C79.9596 55.4147 79.9965 55.3152 79.9998 55.2098C80.003 55.1044 79.9723 55.0017 79.9144 54.9243Z" fill="white"/>
<path d="M70.6932 55.017C70.1676 54.9652 69.6373 55.0321 69.1397 55.2129C68.6421 55.3938 68.1892 55.6842 67.813 56.0637C67.4368 56.4433 67.1464 56.9027 66.9623 57.4097C66.7782 57.9166 66.7048 58.4588 66.7473 58.9979L55 64.2945L60.6036 68L70.8999 62.4022C71.7793 62.269 72.5804 61.81 73.1515 61.1121C73.7226 60.4141 74.024 59.5259 73.9985 58.6156C73.973 57.7052 73.6225 56.8361 73.0133 56.1729C72.4041 55.5097 71.5786 55.0984 70.6932 55.017Z" fill="#A0616A"/>
<path d="M23.5 49C28.1944 49 32 45.1944 32 40.5C32 35.8056 28.1944 32 23.5 32C18.8056 32 15 35.8056 15 40.5C15 45.1944 18.8056 49 23.5 49Z" fill="#A0616A"/>
<path d="M39.0008 164L43.7438 164L46 147L39 147L39.0008 164Z" fill="#A0616A"/>
<path d="M38 163L46.5505 163H46.5509C47.2665 163 47.9751 163.125 48.6362 163.369C49.2973 163.612 49.898 163.969 50.404 164.418C50.91 164.868 51.3114 165.402 51.5852 165.989C51.8591 166.577 52 167.206 52 167.842V168L38.0003 168L38 163Z" fill="#2F2E41"/>
<path d="M21.0008 164L25.7438 164L28 147L21 147L21.0008 164Z" fill="#A0616A"/>
<path d="M20 163L28.5505 163H28.5509C29.2665 163 29.9751 163.125 30.6362 163.369C31.2973 163.612 31.898 163.969 32.404 164.418C32.91 164.868 33.3114 165.402 33.5852 165.989C33.8591 166.577 34 167.206 34 167.842V168L20.0003 168L20 163Z" fill="#2F2E41"/>
<path d="M20.7432 160.597C20.5744 160.446 20.4392 160.261 20.3462 160.053C20.2533 159.846 20.2048 159.621 20.204 159.393L20 95.8907L42.6429 95.0063L42.8092 95L46.533 133.091L46.9996 157.357C47.0085 157.758 46.8693 158.147 46.6093 158.449C46.3494 158.751 45.9874 158.944 45.5944 158.99L40.0982 159.645C39.8801 159.671 39.6591 159.651 39.4491 159.587C39.239 159.522 39.0444 159.414 38.8776 159.27C38.7107 159.125 38.5752 158.947 38.4795 158.747C38.3839 158.547 38.3302 158.328 38.3218 158.106L37.3433 132.327L32.592 116.278C32.542 116.169 32.4576 116.081 32.3521 116.026C32.2467 115.972 32.1264 115.955 32.0102 115.977C31.894 116 31.7887 116.062 31.711 116.152C31.6333 116.243 31.5877 116.357 31.5814 116.476L29.7318 158.678C29.7131 159.057 29.5629 159.417 29.3077 159.695C29.0524 159.973 28.7086 160.15 28.3368 160.196L21.9899 160.988C21.7666 161.016 21.54 160.995 21.3251 160.928C21.1101 160.861 20.9118 160.748 20.7432 160.597Z" fill="#2F2E41"/>
<path d="M19.169 98.7872L12.4891 71.5026C10.4077 63.0009 15.1624 54.4407 23.0883 52.4206C24.9481 51.943 26.8879 51.8712 28.7774 52.2101C30.667 52.549 32.4626 53.2907 34.0436 54.3853C35.8409 55.6359 37.3558 57.2537 38.4894 59.1331C39.6229 61.0125 40.3497 63.1112 40.6222 65.2922L44.9855 97.5932C45.0155 97.8151 44.9987 98.0408 44.9362 98.2557C44.8736 98.4706 44.7667 98.6699 44.6225 98.8405C44.4782 99.0111 44.2999 99.1492 44.099 99.2458C43.8982 99.3424 43.6793 99.3954 43.4568 99.4012L20.7494 99.9996C20.7355 100 20.7218 100 20.708 100C20.354 99.9984 20.0106 99.8784 19.732 99.6588C19.4533 99.4392 19.2552 99.1326 19.169 98.7872Z" fill="#0066FF"/>
<path d="M47.3053 73.2266L30.23 64.9169C29.5159 64.5694 28.8816 64.0772 28.3672 63.4714C27.8528 62.8656 27.4695 62.1594 27.2416 61.3975C27.0136 60.6356 26.946 59.8347 27.043 59.0452C27.1399 58.2558 27.3994 57.4951 27.8049 56.8114C28.2104 56.1276 28.7532 55.5356 29.3988 55.0729C30.0445 54.6101 30.779 54.2867 31.5558 54.123C32.3327 53.9593 33.135 53.959 33.912 54.122C34.689 54.2851 35.4238 54.6079 36.0698 55.0701L49.8856 64.9555L64.7997 59.0051C65.0966 58.8858 65.4224 58.859 65.7348 58.9279C66.0471 58.9969 66.3315 59.1585 66.5508 59.3918L68.5622 61.5194C68.723 61.6894 68.8445 61.8927 68.9183 62.1149C68.9921 62.3371 69.0163 62.5728 68.9893 62.8055C68.9622 63.0381 68.8845 63.2619 68.7617 63.4612C68.639 63.6604 68.474 63.8303 68.2786 63.9587L54.9266 72.7354C53.806 73.4678 52.5156 73.8979 51.1804 73.9839C49.8451 74.07 48.5103 73.8092 47.3053 73.2266Z" fill="#0066FF"/>
<path d="M20.0673 47.9992C19.3716 48.0119 18.6818 47.8778 18.0485 47.6067C17.7659 47.4896 17.4726 47.3935 17.1906 47.2764C14.6997 46.2422 13.0589 43.3916 13.0001 40.5228C12.9929 39.1241 13.2886 37.7387 13.8691 36.4513C14.4497 35.1638 15.303 34.0012 16.3768 33.0345C18.4037 31.2788 21.0038 30.2229 23.7513 30.0395C26.6194 29.8049 29.8489 30.5864 31.4515 33.1531C31.6951 33.4919 31.8626 33.8739 31.9438 34.2758C32.025 34.6776 32.0181 35.0909 31.9237 35.4902C31.8516 35.733 31.7169 35.9554 31.5315 36.1374C30.8158 36.8217 30.1023 36.3072 29.3727 36.2617C28.3698 36.1992 27.4691 37.0715 27.1454 38.0934C26.8216 39.1153 26.9641 40.2403 27.2255 41.2826L27.2304 41.3019C27.2895 41.5453 27.2926 41.7977 27.2395 42.0422C27.1864 42.2868 27.0783 42.5178 26.9224 42.7197C26.7666 42.9216 26.5666 43.0898 26.336 43.213C26.1054 43.3361 25.8494 43.4114 25.5853 43.4337C24.4823 43.5273 23.2707 43.5857 22.9248 43.433C22.2475 43.1339 21.3376 43.2002 20.9434 43.8633C20.8169 44.1084 20.7323 44.3707 20.6929 44.6406C20.3395 46.3708 20.4207 46.2689 20.0673 47.9992Z" fill="#2F2E41"/>
<path d="M18.2142 113.487C18.561 113.055 18.8014 112.558 18.9184 112.03C19.0355 111.502 19.0264 110.957 18.8918 110.433C18.7572 109.908 18.5004 109.418 18.1394 108.996C17.7784 108.574 17.322 108.23 16.8024 107.989L18.6224 95L12.028 97.9835L11.3108 109.861C10.9326 110.698 10.8984 111.634 11.2146 112.492C11.5308 113.351 12.1754 114.072 13.0263 114.519C13.8773 114.966 14.8754 115.108 15.8315 114.918C16.7877 114.728 17.6355 114.219 18.2142 113.487Z" fill="#A0616A"/>
<path d="M18.8156 105.16C18.6983 105.197 18.5771 105.223 18.4539 105.237L11.9541 105.987C11.7095 106.016 11.4611 105.996 11.2254 105.93C10.9898 105.864 10.7723 105.752 10.5874 105.603C10.4025 105.455 10.2546 105.271 10.1533 105.066C10.052 104.861 9.99973 104.639 10 104.414L10.0513 62.991C10.0589 61.7921 10.536 60.6352 11.3965 59.7292C12.257 58.8233 13.4441 58.2281 14.7433 58.0512C15.5643 57.9431 16.4014 58.0067 17.1915 58.2371C17.9816 58.4675 18.704 58.8587 19.3042 59.3813C19.9044 59.9039 20.3666 60.5441 20.656 61.2536C20.9454 61.963 21.0544 62.7233 20.9747 63.4768L19.0863 81.3276L19.9714 103.608C19.9866 103.946 19.8824 104.279 19.6743 104.558C19.4662 104.838 19.1651 105.049 18.8156 105.16Z" fill="#0066FF"/>
<path d="M73.6442 169H0.355769C0.261413 169 0.170922 168.947 0.104202 168.854C0.0374825 168.76 0 168.633 0 168.5C0 168.367 0.0374825 168.24 0.104202 168.146C0.170922 168.053 0.261413 168 0.355769 168H73.6442C73.7386 168 73.8291 168.053 73.8958 168.146C73.9625 168.24 74 168.367 74 168.5C74 168.633 73.9625 168.76 73.8958 168.854C73.8291 168.947 73.7386 169 73.6442 169Z" fill="#CCCCCC"/>
</svg>
