<svg width="13" height="13" viewBox="0 0 13 13" fill="none" xmlns="http://www.w3.org/2000/svg">
<path d="M9.74984 4.60409C9.74984 4.87191 9.67042 5.13372 9.52163 5.35641C9.37284 5.5791 9.16135 5.75266 8.91392 5.85515C8.66649 5.95764 8.39422 5.98446 8.13155 5.93221C7.86888 5.87996 7.6276 5.75099 7.43823 5.56161C7.24885 5.37223 7.11988 5.13095 7.06763 4.86827C7.01539 4.60559 7.0422 4.33332 7.14469 4.08588C7.24718 3.83844 7.42074 3.62696 7.64342 3.47816C7.86611 3.32937 8.12791 3.24995 8.39573 3.24995C8.75486 3.24995 9.09928 3.39262 9.35323 3.64657C9.60717 3.90052 9.74984 4.24495 9.74984 4.60409ZM9.02349 9.59437C8.91765 10.0105 8.76729 10.414 8.57501 10.7979C8.21998 11.4693 7.68688 12.03 7.03421 12.4184C6.38153 12.8068 5.63449 13.008 4.87504 12.9998H4.3334V10.3689C4.32359 9.9205 4.14109 9.49315 3.82393 9.17599C3.50677 8.85882 3.07943 8.67631 2.63101 8.66651H0.000241054V8.12485C-0.00795853 7.36538 0.193171 6.61833 0.581567 5.96564C0.969962 5.31295 1.53062 4.77984 2.20202 4.4248C2.58593 4.23252 2.98944 4.08215 3.40556 3.97631C5.39502 1.28915 7.70296 0.0964252 11.0812 1.03584e-05H11.1039C11.3555 -0.000822401 11.6046 0.0485648 11.8368 0.145277C12.069 0.241989 12.2796 0.38408 12.4561 0.563221C12.6327 0.742362 12.7717 0.954948 12.8651 1.18852C12.9584 1.42209 13.0042 1.67194 12.9997 1.92343C12.9022 5.34995 11.7463 7.5832 9.02349 9.59437ZM11.3748 1.90014C11.3759 1.82895 11.349 1.76016 11.2999 1.70867C11.2507 1.65717 11.1832 1.62711 11.1121 1.62498C8.15415 1.71273 6.32448 2.68987 4.59176 5.10837C4.1425 5.75168 3.74305 6.42837 3.39689 7.13254C3.99341 7.28279 4.5381 7.59183 4.97307 8.02682C5.40805 8.4618 5.71708 9.0065 5.86733 9.60303C6.57155 9.25699 7.24824 8.85752 7.89146 8.40814C10.3142 6.67159 11.2914 4.84729 11.3748 1.90014ZM0.883663 10.1441C0.46443 10.5623 0.206066 11.8249 0.114528 12.3498L0.000241054 12.9998L0.650214 12.8849C1.17073 12.7928 2.42572 12.5334 2.84496 12.1131C3.10477 11.8513 3.25057 11.4974 3.25057 11.1286C3.25057 10.7598 3.10477 10.4059 2.84496 10.1441C2.58134 9.89082 2.22991 9.74934 1.86431 9.74934C1.4987 9.74934 1.14728 9.89082 0.883663 10.1441Z" fill="white"/>
</svg>
