<svg width="4" height="21" viewBox="0 0 4 21" fill="none" xmlns="http://www.w3.org/2000/svg">
<path d="M0.000124378 1.75043C0.000124336 2.71716 0.783817 3.50085 1.75055 3.50085C2.71728 3.50085 3.50098 2.71716 3.50098 1.75043C3.50098 0.783692 2.71728 -3.42563e-08 1.75055 -7.65136e-08C0.783817 -1.18771e-07 0.00012442 0.783692 0.000124378 1.75043Z" fill="#343434"/>
<path d="M0.000124378 10.5034C0.000124336 11.4701 0.783817 12.2538 1.75055 12.2538C2.71728 12.2538 3.50098 11.4701 3.50098 10.5034C3.50098 9.53662 2.71728 8.75293 1.75055 8.75293C0.783817 8.75293 0.00012442 9.53662 0.000124378 10.5034Z" fill="#343434"/>
<path d="M0.000124378 19.2494C0.000124336 20.2162 0.783817 20.9999 1.75055 20.9999C2.71728 20.9999 3.50098 20.2162 3.50098 19.2494C3.50098 18.2827 2.71728 17.499 1.75055 17.499C0.783817 17.499 0.00012442 18.2827 0.000124378 19.2494Z" fill="#343434"/>
</svg>
