<svg width="15" height="20" viewBox="0 0 15 20" fill="none" xmlns="http://www.w3.org/2000/svg">
<path d="M7.58582 10.0291C8.54854 10.0291 9.48963 9.74359 10.2901 9.20874C11.0906 8.67388 11.7145 7.91368 12.0829 7.02425C12.4513 6.13481 12.5477 5.15611 12.3599 4.2119C12.172 3.26768 11.7085 2.40036 11.0277 1.71962C10.347 1.03888 9.47965 0.575292 8.53544 0.387476C7.59122 0.19966 6.61252 0.296054 5.72309 0.664469C4.83366 1.03288 4.07345 1.65677 3.53859 2.45724C3.00374 3.2577 2.71826 4.1988 2.71826 5.16151C2.71955 6.45207 3.2328 7.68941 4.14536 8.60197C5.05793 9.51454 6.29526 10.0278 7.58582 10.0291ZM7.58582 1.91647C8.22763 1.91647 8.85503 2.10679 9.38867 2.46336C9.92232 2.81993 10.3382 3.32673 10.5839 3.91969C10.8295 4.51264 10.8937 5.16511 10.7685 5.79459C10.6433 6.42406 10.3342 7.00227 9.88041 7.4561C9.42659 7.90993 8.84838 8.21899 8.2189 8.3442C7.58942 8.46941 6.93695 8.40515 6.344 8.15954C5.75105 7.91393 5.24424 7.498 4.88767 6.96436C4.5311 6.43071 4.34078 5.80332 4.34078 5.16151C4.34078 4.30087 4.68267 3.47548 5.29123 2.86692C5.8998 2.25836 6.72519 1.91647 7.58582 1.91647Z" fill="#AAB4AF"/>
<path d="M7.58601 12.4629C5.65024 12.4648 3.79436 13.1577 2.42555 14.3896C1.05675 15.6216 0.286815 17.2919 0.284668 19.0341C0.284668 19.2277 0.37014 19.4134 0.522281 19.5503C0.674422 19.6873 0.880769 19.7642 1.09593 19.7642C1.31109 19.7642 1.51744 19.6873 1.66958 19.5503C1.82172 19.4134 1.90719 19.2277 1.90719 19.0341C1.90719 17.6786 2.50549 16.3786 3.57048 15.4201C4.63546 14.4616 6.0799 13.9231 7.58601 13.9231C9.09213 13.9231 10.5366 14.4616 11.6015 15.4201C12.6665 16.3786 13.2648 17.6786 13.2648 19.0341C13.2648 19.2277 13.3503 19.4134 13.5024 19.5503C13.6546 19.6873 13.8609 19.7642 14.0761 19.7642C14.2913 19.7642 14.4976 19.6873 14.6497 19.5503C14.8019 19.4134 14.8874 19.2277 14.8874 19.0341C14.8852 17.2919 14.1153 15.6216 12.7465 14.3896C11.3777 13.1577 9.52179 12.4648 7.58601 12.4629Z" fill="#AAB4AF"/>
</svg>
