<svg width="22" height="22" viewBox="0 0 22 22" fill="none" xmlns="http://www.w3.org/2000/svg">
<path d="M21 11C21 5.47917 16.5208 1 11 1C5.47917 1 1 5.47917 1 11C1 16.5208 5.47917 21 11 21C16.5208 21 21 16.5208 21 11Z" stroke="#FFE606" stroke-width="1.5" stroke-miterlimit="10"/>
<path d="M10.7015 6.31496L11.0004 12.6665L11.2989 6.31496C11.3007 6.27435 11.2943 6.2338 11.2799 6.19577C11.2655 6.15775 11.2436 6.12305 11.2154 6.0938C11.1871 6.06455 11.1532 6.04137 11.1157 6.02566C11.0783 6.00996 11.038 6.00206 10.9973 6.00246C10.9572 6.00283 10.9175 6.0113 10.8807 6.02735C10.8438 6.0434 10.8106 6.06671 10.783 6.09587C10.7554 6.12504 10.734 6.15947 10.72 6.19711C10.7059 6.23475 10.6997 6.27483 10.7015 6.31496Z" fill="#FFE606" stroke="#FFE606" stroke-width="1.5" stroke-linecap="round" stroke-linejoin="round"/>
<path d="M11.0007 16.8289C10.7946 16.8289 10.5932 16.7678 10.4219 16.6534C10.2506 16.5389 10.1171 16.3762 10.0383 16.1859C9.95944 15.9956 9.93881 15.7861 9.979 15.5841C10.0192 15.382 10.1184 15.1964 10.2641 15.0507C10.4098 14.905 10.5954 14.8058 10.7974 14.7656C10.9995 14.7254 11.2089 14.7461 11.3993 14.8249C11.5896 14.9037 11.7523 15.0373 11.8668 15.2086C11.9812 15.3799 12.0423 15.5813 12.0423 15.7873C12.0423 16.0635 11.9326 16.3285 11.7372 16.5238C11.5419 16.7192 11.2769 16.8289 11.0007 16.8289Z" fill="#FFE606"/>
</svg>
