<svg width="13" height="13" viewBox="0 0 13 13" fill="none" xmlns="http://www.w3.org/2000/svg">
<path fill-rule="evenodd" clip-rule="evenodd" d="M11.1065 1.88933C9.88403 0.671667 8.25882 0.000541667 6.52749 0C2.95977 0 0.0560603 2.88925 0.0544275 6.4415C0.0538832 7.57683 0.352146 8.68508 0.918736 9.66225L0 13L3.43111 12.1041C4.37651 12.6176 5.44111 12.8879 6.52422 12.8884H6.52694C10.0941 12.8884 12.9984 9.99863 13 6.44638C13.0011 4.7255 12.3284 3.10646 11.1065 1.88933ZM6.52749 11.8002H6.52531C5.55976 11.8002 4.61327 11.5418 3.78706 11.0538L3.59058 10.9379L1.55445 11.4693L2.09818 9.49325L1.97027 9.29067C1.43144 8.43808 1.14733 7.45279 1.14788 6.4415C1.14896 3.48942 3.56282 1.08767 6.53021 1.08767C7.96709 1.08767 9.31798 1.64558 10.3336 2.65742C11.3492 3.66979 11.9082 5.01475 11.9076 6.44529C11.906 9.39846 9.49269 11.8002 6.52749 11.8002ZM9.47854 7.79025C9.31689 7.70954 8.52171 7.32008 8.37312 7.26646C8.22508 7.21283 8.11731 7.18575 8.009 7.34663C7.90069 7.5075 7.59154 7.87042 7.49684 7.97821C7.40268 8.08546 7.30798 8.099 7.14633 8.01829C6.98468 7.93758 6.46326 7.76804 5.84551 7.21933C5.36491 6.7925 5.03998 6.26546 4.94582 6.10404C4.85166 5.94263 4.93603 5.85596 5.01658 5.77579C5.08951 5.70375 5.17823 5.58783 5.25933 5.49358C5.34097 5.40042 5.36764 5.33325 5.42206 5.22546C5.47595 5.11821 5.44928 5.02396 5.40846 4.94325C5.36764 4.86308 5.04434 4.07063 4.9099 3.74833C4.77873 3.43417 4.64538 3.47696 4.54578 3.47208C4.45162 3.46721 4.34386 3.46667 4.23555 3.46667C4.12778 3.46667 3.95252 3.50675 3.80448 3.66817C3.65644 3.82958 3.23843 4.21904 3.23843 5.01096C3.23843 5.80342 3.81809 6.56879 3.89864 6.67604C3.97919 6.78329 5.03889 8.40938 6.66138 9.1065C7.04727 9.27225 7.3488 9.37138 7.58338 9.44558C7.9709 9.568 8.32359 9.55067 8.60226 9.5095C8.91304 9.46346 9.5591 9.12004 9.69408 8.74413C9.82906 8.36821 9.82906 8.04537 9.78824 7.97875C9.74796 7.91104 9.64019 7.87096 9.47854 7.79025Z" fill="#343434"/>
</svg>
